<svg width="34" height="34" viewBox="0 0 34 34" fill="none" xmlns="http://www.w3.org/2000/svg">
<path d="M11.81 8.94976C12.115 8.95793 12.453 8.97442 12.7747 9.68839C12.988 10.1637 13.3473 11.0387 13.64 11.7515C13.8677 12.3061 14.0551 12.7625 14.102 12.8559C14.2092 13.0693 14.2752 13.3154 14.135 13.6026C14.1185 13.6365 14.1029 13.6689 14.0878 13.7001C13.9754 13.9334 13.8954 14.0994 13.7063 14.3166C13.6286 14.4058 13.5476 14.5037 13.4669 14.6012C13.325 14.7726 13.184 14.943 13.0632 15.0634C12.8489 15.2766 12.6262 15.5065 12.8735 15.9332C13.121 16.3598 13.9866 17.7631 15.2646 18.8956C16.6385 20.1187 17.8332 20.6342 18.437 20.8948C18.5543 20.9453 18.6493 20.9863 18.719 21.021C19.1478 21.2343 19.4033 21.2015 19.6506 20.9143C19.8981 20.627 20.7225 19.6669 21.0111 19.2402C21.2914 18.8136 21.5799 18.8792 21.9758 19.0269C22.3714 19.1746 24.4821 20.2085 24.9107 20.4219C24.9955 20.4641 25.0748 20.5021 25.1482 20.5373C25.4465 20.6803 25.6492 20.7776 25.7352 20.9225C25.8424 21.103 25.8424 21.9565 25.4879 22.9576C25.1252 23.9587 23.3773 24.9189 22.5858 24.9927C22.5108 24.9998 22.4363 25.0088 22.3595 25.0181C21.6342 25.1058 20.7134 25.2172 17.4328 23.9259C13.3905 22.3363 10.7222 18.3923 10.1827 17.595C10.1401 17.532 10.1108 17.4887 10.0951 17.4676L10.086 17.4554C9.84051 17.127 8.33893 15.1178 8.33893 13.0448C8.33893 11.0614 9.31596 10.0288 9.76161 9.55779C9.78985 9.52794 9.81596 9.50035 9.83955 9.47492C10.2352 9.04825 10.697 8.94159 10.9855 8.94159C11.2742 8.94159 11.5627 8.94159 11.81 8.94976Z" fill="url(#paint0_linear_122_382)"/>
<path fill-rule="evenodd" clip-rule="evenodd" d="M0.640423 32.5524C0.504061 33.0474 0.954876 33.5042 1.45162 33.3745L9.13052 31.3688C11.5544 32.6817 14.2835 33.3792 17.062 33.3792H17.0702C26.2135 33.3792 33.6668 25.9691 33.6668 16.8604C33.6668 12.4456 31.9435 8.29324 28.8106 5.17486C25.6777 2.05662 21.514 0.333344 17.0701 0.333344C7.92691 0.333344 0.473634 7.74343 0.473634 16.8523C0.472595 19.75 1.23746 22.597 2.69144 25.1075L0.640423 32.5524ZM5.10165 25.7715C5.27968 25.1253 5.19074 24.4346 4.8548 23.8546C3.62121 21.7246 2.97275 19.3092 2.97363 16.8523C2.97363 9.13598 9.29575 2.83334 17.0701 2.83334C20.8532 2.83334 24.3827 4.29498 27.047 6.94677C29.7082 9.59562 31.1668 13.1102 31.1668 16.8604C31.1668 24.5766 24.8447 30.8792 17.0702 30.8792H17.062C14.7011 30.8792 12.3812 30.2864 10.3212 29.1705C9.76369 28.8685 9.11222 28.7897 8.49873 28.9499L3.89472 30.1525L5.10165 25.7715Z" fill="url(#paint1_linear_122_382)"/>
<defs>
<linearGradient id="paint0_linear_122_382" x1="17.0702" y1="0.333344" x2="17.0702" y2="33.3968" gradientUnits="userSpaceOnUse">
<stop stop-color="#8C52FF"/>
<stop offset="1" stop-color="#6F26FF"/>
</linearGradient>
<linearGradient id="paint1_linear_122_382" x1="17.0702" y1="0.333344" x2="17.0702" y2="33.3968" gradientUnits="userSpaceOnUse">
<stop stop-color="#8C52FF"/>
<stop offset="1" stop-color="#6F26FF"/>
</linearGradient>
</defs>
</svg>
