<svg width="263" height="53" viewBox="0 0 263 53" fill="none" xmlns="http://www.w3.org/2000/svg">
<path d="M96.5277 1.67597H106.496L123.445 32.3429L140.394 1.67597H150.147V52.0675H142.014V13.4462L127.152 40.1897H119.523L104.66 13.4462V52.0675H96.5277V1.67597Z" fill="white"/>
<path d="M176.38 52.9676C172.613 52.9676 169.302 52.1337 166.448 50.466C163.593 48.7983 161.368 46.4887 159.772 43.5372C158.177 40.5855 157.379 37.2021 157.379 33.3869C157.379 29.5237 158.159 26.1042 159.718 23.1285C161.278 20.1535 163.443 17.8258 166.214 16.1455C168.985 14.4663 172.17 13.6264 175.768 13.626C179.343 13.626 182.419 14.4718 184.999 16.1634C187.577 17.8555 189.562 20.2252 190.954 23.2724C192.345 26.3201 193.041 29.8955 193.041 33.9987V36.23H165.44C165.944 39.3021 167.186 41.7197 169.165 43.4829C171.144 45.2467 173.645 46.1285 176.668 46.1284C179.091 46.1284 181.178 45.7684 182.929 45.0486C184.68 44.3287 186.324 43.237 187.86 41.7733L192.178 47.0643C187.883 51.0001 182.617 52.9679 176.38 52.9676ZM182.318 23.0743C180.614 21.3349 178.383 20.465 175.624 20.4647C172.937 20.4647 170.688 21.3526 168.877 23.1285C167.065 24.9043 165.92 27.2919 165.44 30.2913H185.233C184.992 27.2197 184.021 24.814 182.318 23.0743Z" fill="white"/>
<path d="M202.902 21.185H195.417V14.526H202.902V3.512H210.747V14.526H222.119V21.185H210.747V38.066C210.747 40.8733 211.227 42.8769 212.187 44.0768C213.146 45.2771 214.789 45.8769 217.117 45.8765C218.148 45.8765 219.024 45.8345 219.744 45.7506C220.464 45.6669 221.255 45.5529 222.119 45.4085V51.9953C221.133 52.2805 220.129 52.4971 219.114 52.6435C217.952 52.8145 216.78 52.8987 215.605 52.8954C207.136 52.8954 202.902 48.2642 202.902 39.0019V21.185Z" fill="white"/>
<path d="M263 52.0675H255.299V46.8125C253.931 48.7804 252.192 50.2981 250.081 51.3656C247.97 52.433 245.571 52.967 242.884 52.9676C239.573 52.9676 236.64 52.1217 234.085 50.4297C231.53 48.7381 229.521 46.4106 228.058 43.4471C226.594 40.4835 225.862 37.0941 225.862 33.2789C225.862 29.4396 226.606 26.0441 228.094 23.0923C229.581 20.1411 231.638 17.8255 234.265 16.1455C236.892 14.4663 239.909 13.6265 243.316 13.626C245.883 13.626 248.186 14.124 250.225 15.12C252.237 16.0933 253.979 17.5454 255.299 19.3491V14.5261H263V52.0675ZM255.155 27.6638C254.315 25.5281 252.99 23.8423 251.179 22.6064C249.367 21.3707 247.274 20.7529 244.899 20.7529C241.54 20.7529 238.865 21.8807 236.874 24.1362C234.883 26.3919 233.887 29.4394 233.887 33.2788C233.887 37.1425 234.847 40.202 236.766 42.4574C238.685 44.7131 241.288 45.8408 244.575 45.8407C246.998 45.8407 249.157 45.2167 251.053 43.9688C252.948 42.7217 254.315 41.042 255.155 38.9298V27.6638Z" fill="white"/>
<path d="M8.61685 34.9522C8.61685 37.9991 9.28546 40.3383 10.1593 41.7535C11.3051 43.6071 13.0141 44.3924 14.7563 44.3924C17.0034 44.3924 19.0592 43.8346 23.0208 38.3542C26.1946 33.9616 29.9343 27.7958 32.4505 23.9305L36.7118 17.3818C39.6719 12.8338 43.0982 7.77795 47.0265 4.35099C50.2336 1.55394 53.6931 0 57.1747 0C63.0201 0 68.5881 3.38811 72.8493 9.74256C77.5129 16.7019 79.7767 25.4678 79.7767 34.5138C79.7767 39.8915 78.7169 43.8429 76.9136 46.9646C75.1714 49.9837 71.7757 53 66.0635 53V44.3924C70.9545 44.3924 72.1752 39.8971 72.1752 34.7524C72.1752 27.4213 70.4662 19.2853 66.7016 13.472C64.03 9.34854 60.5677 6.82894 56.7586 6.82894C52.6388 6.82894 49.3236 9.93679 45.5978 15.4782C43.6169 18.4224 41.5834 22.0102 39.3002 26.0588L36.7867 30.5125C31.7376 39.467 30.4586 41.5065 27.9341 44.8724C23.5091 50.7662 19.7305 53 14.7563 53C8.85543 53 5.12405 50.4444 2.81309 46.5928C0.926594 43.4545 0 39.3366 0 34.6443L8.61685 34.9522Z" fill="#0081FB"/>
<path d="M6.79416 10.3502C10.7447 4.2594 16.4458 0 22.9847 0C26.7716 0 30.5363 1.12106 34.4674 4.33159C38.7675 7.8418 43.3506 13.6219 49.0684 23.148L51.1185 26.5666C56.0678 34.8135 58.8837 39.0563 60.5316 41.057C62.6511 43.6265 64.1354 44.3924 66.0635 44.3924C70.9545 44.3924 72.1752 39.8971 72.1752 34.7524L79.7767 34.5138C79.7767 39.8915 78.7169 43.8429 76.9136 46.9646C75.1714 49.9837 71.7757 53 66.0635 53C62.5124 53 59.3664 52.2286 55.8875 48.9459C53.2131 46.4264 50.0865 41.9505 47.6812 37.9269L40.5264 25.9728C36.9365 19.9735 33.6435 15.5004 31.7376 13.4747C29.6874 11.2965 27.0518 8.6659 22.846 8.6659C19.442 8.6659 16.5512 11.0551 14.1321 14.7096L6.79416 10.3502Z" fill="url(#paint0_linear_198_700)"/>
<path d="M22.846 8.6659C19.442 8.6659 16.5512 11.0551 14.1321 14.7096C10.7114 19.8736 8.61685 27.5656 8.61685 34.9522C8.61685 37.9991 9.28546 40.3383 10.1593 41.7535L2.81309 46.5928C0.926594 43.4545 0 39.3366 0 34.6443C0 26.1115 2.34147 17.218 6.79416 10.3502C10.7447 4.2594 16.4458 0 22.9847 0L22.846 8.6659Z" fill="url(#paint1_linear_198_700)"/>
<defs>
<linearGradient id="paint0_linear_198_700" x1="36.5003" y1="32.466" x2="228.592" y2="67.4191" gradientUnits="userSpaceOnUse">
<stop stop-color="#0064E1"/>
<stop offset="0.4" stop-color="#0064E1"/>
<stop offset="0.83" stop-color="#0073EE"/>
<stop offset="1" stop-color="#0082FB"/>
</linearGradient>
<linearGradient id="paint1_linear_198_700" x1="12.4842" y1="38.5707" x2="12.4842" y2="18.3141" gradientUnits="userSpaceOnUse">
<stop stop-color="#0082FB"/>
<stop offset="1" stop-color="#0064E0"/>
</linearGradient>
</defs>
</svg>
