<svg width="100" height="124" viewBox="0 0 100 124" fill="none" xmlns="http://www.w3.org/2000/svg">
<path d="M2.8713 65.0965L35.8013 8.72323C39.9838 11.1855 61.0742 22.8576 64.477 25.0771L31.5504 81.4503C27.9527 86.2074 -1.6874 72.3158 2.8713 65.0965Z" fill="#FBBC04"/>
<path d="M97.554 65.0965L64.6274 8.72323C60.0243 1.06612 50.1101 -1.71766 41.9673 2.80684C33.8246 7.33134 31.3452 17.078 35.9484 25.0805L68.8749 81.4538C73.4781 89.1109 83.3923 91.8946 91.535 87.3701C99.3255 82.8456 102.157 72.7502 97.554 65.0965Z" fill="#4285F4"/>
<path d="M17.1219 89.5486C26.2502 89.5486 33.6502 82.3324 33.6502 73.4307C33.6502 64.5291 26.2502 57.3128 17.1219 57.3128C7.99362 57.3128 0.593659 64.5291 0.593659 73.4307C0.593659 82.3324 7.99362 89.5486 17.1219 89.5486Z" fill="#34A853"/>
<path fill-rule="evenodd" clip-rule="evenodd" d="M67.9455 118.469L73.1616 104.636H75.1707L80.3868 118.469H78.4163L77.0833 114.721H71.2683L69.916 118.469H67.9455ZM71.8672 113.059H76.4651L74.2048 106.819H74.1275L71.8672 113.059ZM85.3711 118.778C84.1473 118.778 83.0914 118.295 82.2028 117.329C81.3141 116.363 80.8698 115.165 80.8698 113.736C80.8698 112.306 81.3141 111.108 82.2028 110.142C83.0914 109.176 84.1473 108.693 85.3711 108.693C86.0926 108.693 86.7402 108.848 87.313 109.157C87.8859 109.466 88.3143 109.853 88.5973 110.316H88.6746L88.5973 109.003V104.636H90.3747V118.469H88.6746V117.155H88.5973C88.3143 117.619 87.8859 118.005 87.3122 118.314C86.7385 118.623 86.0926 118.778 85.3711 118.778ZM85.6609 117.155C86.4983 117.155 87.2097 116.846 87.796 116.228C88.3823 115.61 88.6746 114.779 88.6746 113.736C88.6746 112.692 88.3815 111.862 87.796 111.243C87.2106 110.625 86.4983 110.316 85.6609 110.316C84.8369 110.316 84.128 110.629 83.5358 111.253C82.9436 111.877 82.6471 112.706 82.6471 113.736C82.6471 114.765 82.9436 115.594 83.5358 116.218C84.128 116.842 84.8369 117.155 85.6609 117.155ZM95.9578 118.778C94.902 118.778 94.0293 118.52 93.3405 118.005C92.6518 117.49 92.1453 116.846 91.8236 116.073L93.4077 115.416C93.91 116.601 94.7668 117.194 95.9771 117.194C96.5315 117.194 96.9851 117.071 97.3387 116.827C97.6923 116.582 97.8704 116.26 97.8704 115.861C97.8704 115.243 97.4387 114.824 96.576 114.605L94.6634 114.141C94.0587 113.987 93.485 113.694 92.9441 113.262C92.4031 112.83 92.1327 112.248 92.1327 111.514C92.1327 110.677 92.5023 109.997 93.2439 109.475C93.9856 108.954 94.8634 108.693 95.8805 108.693C96.718 108.693 97.4647 108.883 98.1215 109.263C98.7784 109.643 99.2487 110.187 99.5318 110.896L97.9863 111.533C97.6385 110.696 96.917 110.278 95.8226 110.278C95.2943 110.278 94.8499 110.387 94.4896 110.606C94.1292 110.825 93.9486 111.121 93.9486 111.495C93.9486 112.036 94.367 112.403 95.2044 112.596L97.0783 113.04C97.967 113.246 98.6238 113.6 99.0488 114.103C99.4739 114.605 99.6863 115.172 99.6863 115.803C99.6863 116.653 99.3386 117.361 98.6431 117.928C97.9477 118.495 97.0523 118.778 95.9578 118.778Z" fill="white"/>
<path d="M8.20817 118.753C3.92442 118.753 0.228638 115.225 0.228638 110.941C0.228638 106.657 3.84043 103.13 8.20817 103.13C10.56 103.13 12.3239 104.054 13.5839 105.313L12.0719 106.825C11.148 105.985 9.88807 105.313 8.20817 105.313C5.10035 105.313 2.5805 107.833 2.5805 111.025C2.5805 114.217 5.01636 116.737 8.20817 116.737C10.2241 116.737 11.4 115.897 12.1559 115.141C12.7439 114.553 13.1639 113.629 13.3319 112.453H8.20817V110.353H15.4317C15.5157 110.773 15.5157 111.193 15.5157 111.697C15.5157 113.293 15.0958 115.309 13.6678 116.737C12.2399 117.997 10.476 118.753 8.20817 118.753ZM26.6031 113.713C26.6031 116.653 24.3352 118.753 21.6474 118.753C18.8755 118.753 16.6917 116.653 16.6917 113.713C16.6917 110.773 18.9595 108.673 21.6474 108.673C24.4192 108.673 26.6031 110.857 26.6031 113.713ZM24.4192 113.713C24.4192 111.865 23.1593 110.689 21.6474 110.689C20.1355 110.689 18.8755 111.949 18.8755 113.713C18.8755 115.477 20.1355 116.737 21.6474 116.737C23.1593 116.821 24.4192 115.561 24.4192 113.713ZM37.7744 113.713C37.7744 116.653 35.5066 118.753 32.8187 118.753C30.0469 118.753 27.863 116.653 27.863 113.713C27.863 110.773 30.1309 108.673 32.8187 108.673C35.5066 108.673 37.7744 110.857 37.7744 113.713ZM35.5906 113.713C35.5906 111.865 34.3306 110.689 32.8187 110.689C31.3068 110.689 30.0469 111.949 30.0469 113.713C30.0469 115.477 31.3068 116.737 32.8187 116.737C34.2466 116.821 35.5906 115.561 35.5906 113.713ZM48.6098 109.009V118.081C48.6098 121.776 46.4259 123.372 43.8221 123.372C41.3862 123.372 39.8743 121.692 39.3703 120.433L41.3022 119.593C41.6382 120.433 42.4782 121.356 43.8221 121.356C45.502 121.356 46.5099 120.349 46.5099 118.417V117.661H46.4259C45.922 118.249 44.998 118.837 43.7381 118.837C41.2182 118.837 38.9504 116.653 38.9504 113.797C38.9504 110.941 41.3022 108.757 43.7381 108.757C44.914 108.757 45.922 109.261 46.4259 109.849H46.5099V109.009H48.6098ZM46.6779 113.797C46.6779 112.033 45.502 110.689 43.9901 110.689C42.4782 110.689 41.2182 111.949 41.2182 113.797C41.2182 115.561 42.4782 116.821 43.9901 116.821C45.502 116.821 46.6779 115.477 46.6779 113.797ZM52.4736 103.634V118.417H50.2897V103.634H52.4736ZM61.2091 115.393L62.889 116.569C62.301 117.409 61.0411 118.837 58.6892 118.837C55.8334 118.837 53.7335 116.653 53.7335 113.797C53.7335 110.773 55.8334 108.757 58.4372 108.757C61.0411 108.757 62.301 110.857 62.721 111.949L62.973 112.537L56.2533 115.309C56.7573 116.317 57.5973 116.821 58.6892 116.821C59.7811 116.821 60.6211 116.233 61.2091 115.393ZM55.9174 113.545L60.4531 111.697C60.2011 111.109 59.4452 110.605 58.6052 110.605C57.4293 110.605 55.8334 111.613 55.9174 113.545Z" fill="white"/>
</svg>
