<svg width="16" height="16" viewBox="0 0 16 16" fill="none" xmlns="http://www.w3.org/2000/svg">
<g clip-path="url(#clip0_219_651)">
<path d="M2.7041 10.6926L5.20914 13.0977L4.65641 13.6734L2.15137 11.2683L2.7041 10.6926Z" fill="#8C52FF"/>
<path d="M4.65833 13.764L2.06197 11.2712L2.70349 10.603L5.29985 13.0959L4.65833 13.764ZM2.24208 11.2664L4.6558 13.5839L5.11974 13.1007L2.70602 10.7832L2.24208 11.2664Z" fill="black"/>
<mask id="mask0_219_651" style="mask-type:luminance" maskUnits="userSpaceOnUse" x="-1" y="6" width="11" height="11">
<path d="M3.26843 6.61554L9.24608 12.3548L5.55232 16.202L-0.425325 10.4627L3.26843 6.61554Z" fill="white"/>
</mask>
<g mask="url(#mask0_219_651)">
<path d="M4.70976 11.112C6.06228 12.4105 6.3919 14.351 5.63328 15.8377C5.93022 15.6695 6.20589 15.4588 6.45339 15.201C7.90515 13.689 7.7615 11.1961 6.13155 9.63113C4.5016 8.06617 2.0038 8.0229 0.552047 9.53494C0.304539 9.79273 0.105168 10.0767 -0.049581 10.3814C1.40495 9.56293 3.3561 9.81226 4.70976 11.112Z" fill="#8C52FF"/>
</g>
<mask id="mask1_219_651" style="mask-type:luminance" maskUnits="userSpaceOnUse" x="-1" y="6" width="11" height="11">
<path d="M3.26843 6.61554L9.2611 12.3693L5.56735 16.2164L-0.425325 10.4627L3.26843 6.61554Z" fill="white"/>
</mask>
<g mask="url(#mask1_219_651)">
<path d="M5.4813 15.9961L5.57611 15.8094C6.33802 14.3171 5.96363 12.4047 4.66544 11.1582C3.36726 9.91182 1.44123 9.61551 -0.018895 10.4375L-0.201561 10.5398L-0.106751 10.3531C0.0545653 10.037 0.260642 9.74833 0.507041 9.4917C1.22182 8.74724 2.20543 8.34754 3.27687 8.36541C4.3472 8.38445 5.37608 8.81688 6.17602 9.58494C6.97597 10.353 7.44989 11.3634 7.51127 12.431C7.57386 13.5019 7.21449 14.501 6.49971 15.2454C6.25331 15.5021 5.9721 15.7186 5.66281 15.8926L5.4813 15.9961ZM6.08723 9.67742C4.48502 8.13909 2.02348 8.09509 0.598364 9.57938C0.408571 9.77706 0.244117 9.99462 0.107177 10.2275C0.791777 9.89394 1.58952 9.77344 2.37846 9.88887C3.26631 10.0193 4.08723 10.4254 4.75424 11.0658C5.42009 11.7051 5.86036 12.5099 6.02677 13.3917C6.17303 14.1742 6.08623 14.9773 5.78079 15.6749C6.0079 15.5286 6.21859 15.3554 6.40839 15.1578C7.8335 13.6735 7.68944 11.2157 6.08723 9.67742Z" fill="black"/>
</g>
<path d="M9.30342 3.19445C8.35698 3.63873 7.34136 4.30317 6.39128 5.2927C4.78969 6.9608 2.80626 9.5264 2.1928 10.9613C2.76208 11.1991 3.31914 11.5606 3.81853 12.0401C4.31792 12.5196 4.70183 13.0615 4.9614 13.6195C6.37134 12.9493 8.85301 10.8621 10.4546 9.19401C11.4047 8.20448 12.0284 7.16378 12.4338 6.20007C11.9839 5.70145 11.4734 5.17572 10.9197 4.64408C10.366 4.11244 9.81992 3.62371 9.30342 3.19445Z" fill="#8C52FF"/>
<path d="M4.93023 13.7052L4.903 13.648C4.64102 13.0832 4.2492 12.5426 3.77409 12.0864C3.29782 11.6291 2.74288 11.2607 2.16792 11.0219L2.10961 10.9971L2.13449 10.9387C2.76085 9.46956 4.76787 6.89329 6.34615 5.24946C7.19967 4.3605 8.18487 3.64908 9.27725 3.13609L9.31318 3.11949L9.3443 3.14493C9.87583 3.58862 10.4219 4.07734 10.964 4.59789C11.5062 5.11843 12.0167 5.64416 12.4817 6.1572L12.5083 6.18726L12.4932 6.22384C12.0239 7.33507 11.3543 8.34949 10.5008 9.23845C8.92251 10.8823 6.42882 12.9913 4.98748 13.678L4.93023 13.7052ZM9.29241 3.26839C8.23046 3.77283 7.2699 4.47015 6.43747 5.33715C4.88805 6.95091 2.92511 9.46509 2.27595 10.9279C2.84425 11.1737 3.39239 11.5422 3.86288 11.9939C4.33337 12.4457 4.72274 12.9773 4.99138 13.5351C6.42777 12.8281 8.86004 10.7645 10.4095 9.15077C11.2419 8.28378 11.8984 7.29455 12.3593 6.21296C11.9036 5.71106 11.4047 5.1987 10.8752 4.69037C10.3446 4.18092 9.81242 3.70325 9.29241 3.26839Z" fill="black"/>
<mask id="mask2_219_651" style="mask-type:luminance" maskUnits="userSpaceOnUse" x="1" y="8" width="7" height="7">
<path d="M5.979 8.64929L7.16274 9.78583L2.77085 14.3601L1.58712 13.2236L5.979 8.64929Z" fill="white"/>
</mask>
<g mask="url(#mask2_219_651)">
<path d="M4.82144 11.919C3.66381 13.1247 2.26581 13.6575 2.26581 13.6575C2.26581 13.6575 2.74017 12.2379 3.8978 11.0322C5.05432 9.82764 6.45458 9.29479 6.45458 9.29479C6.45458 9.29479 5.97796 10.7145 4.82144 11.919Z" fill="#8C52FF"/>
</g>
<mask id="mask3_219_651" style="mask-type:luminance" maskUnits="userSpaceOnUse" x="1" y="8" width="7" height="7">
<path d="M6.26306 8.35333L7.4468 9.48987L2.77078 14.3601L1.58704 13.2235L6.26306 8.35333Z" fill="white"/>
</mask>
<g mask="url(#mask3_219_651)">
<path d="M2.16257 13.765L2.2042 13.6383C2.20956 13.6235 2.32824 13.2731 2.59112 12.7679C2.83328 12.3028 3.24891 11.6177 3.8527 10.9889C4.45537 10.3612 5.12301 9.91803 5.57787 9.65716C6.07195 9.37396 6.4172 9.24113 6.43182 9.23516L6.55668 9.18842L6.51389 9.31397C6.50968 9.32992 6.391 9.68029 6.12697 10.1844C5.88481 10.6495 5.47034 11.3357 4.86766 11.9634C4.26387 12.5922 3.59508 13.0343 3.14022 13.2951C2.6473 13.5795 2.30204 13.7123 2.28627 13.7171L2.16257 13.765ZM6.34357 9.41037C5.96835 9.57441 4.87079 10.1113 3.94402 11.0766C3.01614 12.043 2.52548 13.1626 2.37567 13.543C2.75085 13.3767 3.84846 12.8421 4.77634 11.8757C5.7031 10.9104 6.19377 9.79085 6.34357 9.41037Z" fill="black"/>
</g>
<mask id="mask4_219_651" style="mask-type:luminance" maskUnits="userSpaceOnUse" x="9" y="0" width="7" height="7">
<path d="M11.4846 0.545532L15.0358 3.95515L12.6085 6.48331L9.05726 3.07369L11.4846 0.545532Z" fill="white"/>
</mask>
<g mask="url(#mask4_219_651)">
<path d="M13.175 2.29511C13.175 2.29511 11.405 2.20417 9.30336 3.19445C9.81986 3.62371 10.3659 4.11244 10.9196 4.64409C11.4734 5.17573 11.9839 5.70145 12.4338 6.20007C13.3366 4.05881 13.175 2.29511 13.175 2.29511Z" fill="#8C52FF"/>
<path d="M12.4532 6.31648L12.386 6.24304C11.9234 5.73221 11.4151 5.20871 10.8753 4.69038C10.3343 4.17095 9.7917 3.68555 9.26133 3.24297L9.18522 3.17878L9.27729 3.1361C10.3697 2.62311 11.3717 2.40325 12.0181 2.31076C12.7222 2.20917 13.1601 2.22973 13.1782 2.23163L13.2327 2.23505L13.2372 2.28823C13.2398 2.30631 13.2782 2.74303 13.2053 3.45063C13.1403 4.1014 12.9614 5.11152 12.4933 6.22385L12.4532 6.31648ZM13.1151 2.35759C12.9756 2.35476 12.5824 2.35709 12.032 2.43742C11.4116 2.52598 10.4626 2.7323 9.42045 3.20913C9.92895 3.63515 10.4473 4.10178 10.9641 4.5979C11.4797 5.09292 11.9681 5.59302 12.4133 6.08267C12.8474 5.02203 13.0149 4.06542 13.0793 3.44299C13.1361 2.88873 13.1224 2.49572 13.1151 2.35759Z" fill="black"/>
</g>
<path d="M10.2501 7.88913C10.1691 7.97352 10.08 8.05014 9.98498 8.11667C9.88888 8.18437 9.78691 8.24198 9.68018 8.28835C9.57234 8.33588 9.462 8.37213 9.34806 8.39825C9.23412 8.42437 9.11994 8.43916 9.00212 8.44156C8.88545 8.44506 8.77081 8.43719 8.65705 8.41684C8.54103 8.39653 8.43047 8.36591 8.32194 8.32392C8.21341 8.28192 8.11039 8.23188 8.01277 8.16926C7.91516 8.10664 7.82416 8.03482 7.74092 7.95491C7.65654 7.87388 7.58223 7.78699 7.51569 7.692C7.44916 7.59701 7.39381 7.495 7.34744 7.38827C7.30222 7.28265 7.26597 7.17231 7.24212 7.05832C7.21715 6.94548 7.20347 6.83015 7.20223 6.71344C7.20099 6.59672 7.20997 6.48093 7.23144 6.36602C7.2529 6.25111 7.28463 6.13939 7.32889 6.03081C7.37089 5.92228 7.42431 5.81805 7.48803 5.71928C7.55065 5.62167 7.62359 5.52951 7.70461 5.44513C7.78563 5.36074 7.87475 5.28412 7.96973 5.21758C8.06583 5.14989 8.1678 5.09228 8.27453 5.0459C8.38122 4.99726 8.49155 4.96102 8.6055 4.9349C8.71944 4.90878 8.83477 4.8951 8.95144 4.89159C9.06811 4.88808 9.1839 4.89706 9.29877 4.91626C9.41252 4.93662 9.52424 4.96835 9.63162 5.00923C9.74015 5.05123 9.84433 5.10238 9.94194 5.165C10.0396 5.22762 10.1294 5.29833 10.2138 5.37935C10.297 5.45926 10.3725 5.54727 10.439 5.64226C10.5056 5.73724 10.5597 5.83815 10.6061 5.94488C10.6525 6.05161 10.6876 6.16084 10.7137 6.27478C10.7376 6.38877 10.7501 6.50299 10.7513 6.61971C10.7537 6.73754 10.7436 6.85222 10.7221 6.96713C10.7007 7.08204 10.6689 7.19376 10.6258 7.30345C10.5838 7.41198 10.5304 7.5162 10.4667 7.61497C10.4041 7.71259 10.3311 7.80474 10.2501 7.88913Z" fill="#8C52FF"/>
<path d="M7.69654 8.00114C6.96942 7.30302 6.95248 6.13594 7.65838 5.40073C8.36428 4.66552 9.53108 4.63498 10.2582 5.33311C10.9853 6.03124 11.0011 7.1972 10.2952 7.93242C9.5893 8.66763 8.42366 8.69927 7.69654 8.00114ZM10.1694 5.42559C9.49199 4.77519 8.40677 4.80406 7.7497 5.48841C7.09264 6.17276 7.10792 7.25826 7.78533 7.90866C8.46159 8.55796 9.54682 8.52908 10.2039 7.84473C10.8609 7.16039 10.8457 6.07488 10.1694 5.42559Z" fill="black"/>
<path d="M9.90212 7.5551C9.78336 7.67879 9.64365 7.77571 9.48753 7.84575C9.33026 7.91469 9.16665 7.95089 8.99559 7.9555C8.82454 7.96011 8.65964 7.93286 8.50085 7.87149C8.34206 7.81012 8.20195 7.72003 8.07941 7.60238C7.95688 7.48473 7.86116 7.3484 7.79338 7.19223C7.7256 7.03606 7.69051 6.8713 7.68817 6.7002C7.68582 6.5291 7.71533 6.36416 7.77897 6.20532C7.84146 6.04537 7.93377 5.90295 8.05253 5.77925C8.17129 5.65556 8.30984 5.55754 8.46711 5.4886C8.62323 5.41855 8.78684 5.38236 8.95789 5.37774C9.12895 5.37313 9.295 5.40149 9.4538 5.46286C9.61259 5.52424 9.7527 5.61433 9.87523 5.73198C9.99777 5.84963 10.0935 5.98596 10.1613 6.14212C10.229 6.29829 10.263 6.46195 10.2653 6.63304C10.2677 6.80414 10.2382 6.96909 10.1757 7.12904C10.112 7.28788 10.0209 7.43141 9.90212 7.5551Z" fill="#8C52FF"/>
<path d="M8.03392 7.64971C7.49869 7.13582 7.48687 6.2758 8.0063 5.7348C8.52574 5.19379 9.38442 5.17179 9.91964 5.68568C10.4549 6.19956 10.4666 7.05732 9.94721 7.59832C9.42778 8.13933 8.56914 8.16359 8.03392 7.64971ZM9.83196 5.777C9.3476 5.31195 8.56822 5.33234 8.09762 5.82248C7.62703 6.31262 7.63835 7.09218 8.12271 7.55723C8.60707 8.02228 9.38529 8.00078 9.85589 7.51064C10.3265 7.0205 10.3163 6.24205 9.83196 5.777Z" fill="black"/>
</g>
<defs>
<clipPath id="clip0_219_651">
<rect width="16" height="16" fill="white"/>
</clipPath>
</defs>
</svg>
