<svg width="35" height="35" viewBox="0 0 35 35" fill="none" xmlns="http://www.w3.org/2000/svg">
<path fill-rule="evenodd" clip-rule="evenodd" d="M5.33333 0.083252C2.80203 0.083252 0.75 2.13528 0.75 4.66659C0.75 7.19789 2.80203 9.24992 5.33333 9.24992C7.86464 9.24992 9.91667 7.19789 9.91667 4.66659C9.91667 2.13528 7.86464 0.083252 5.33333 0.083252ZM3.25 4.66659C3.25 3.51599 4.18274 2.58325 5.33333 2.58325C6.48393 2.58325 7.41667 3.51599 7.41667 4.66659C7.41667 5.81718 6.48393 6.74992 5.33333 6.74992C4.18274 6.74992 3.25 5.81718 3.25 4.66659Z" fill="white"/>
<path fill-rule="evenodd" clip-rule="evenodd" d="M0.75 11.3333C0.75 10.6429 1.30964 10.0833 2 10.0833H8.66667C9.35702 10.0833 9.91667 10.6429 9.91667 11.3333V32.9999C9.91667 33.6903 9.35702 34.2499 8.66667 34.2499H2C1.30964 34.2499 0.75 33.6903 0.75 32.9999V11.3333ZM3.25 12.5833V31.7499H7.41667V12.5833H3.25Z" fill="white"/>
<path fill-rule="evenodd" clip-rule="evenodd" d="M12.4167 11.3333C12.4167 10.6429 12.9763 10.0833 13.6667 10.0833H20.3333C21.0237 10.0833 21.5833 10.6429 21.5833 11.3333V12.0566L22.3088 11.7457C23.556 11.2112 24.8898 10.876 26.2388 10.7534C30.8637 10.3329 34.9167 13.9672 34.9167 18.6337V32.9999C34.9167 33.6903 34.357 34.2499 33.6667 34.2499H27C26.3096 34.2499 25.75 33.6903 25.75 32.9999V21.3333C25.75 20.7807 25.5305 20.2508 25.1398 19.8601C24.7491 19.4694 24.2192 19.2499 23.6667 19.2499C23.1141 19.2499 22.5842 19.4694 22.1935 19.8601C21.8028 20.2508 21.5833 20.7807 21.5833 21.3333V32.9999C21.5833 33.6903 21.0237 34.2499 20.3333 34.2499H13.6667C12.9763 34.2499 12.4167 33.6903 12.4167 32.9999V11.3333ZM14.9167 12.5833V31.7499H19.0833V21.3333C19.0833 20.1177 19.5662 18.9519 20.4258 18.0923C21.2853 17.2328 22.4511 16.7499 23.6667 16.7499C24.8822 16.7499 26.048 17.2328 26.9076 18.0923C27.7671 18.9519 28.25 20.1177 28.25 21.3333V31.7499H32.4167V18.6337C32.4167 15.4597 29.6484 12.9537 26.4651 13.2431C25.375 13.3422 24.2974 13.6134 23.2936 14.0436L20.8257 15.1012C20.4395 15.2667 19.996 15.2272 19.6452 14.9959C19.2944 14.7645 19.0833 14.3725 19.0833 13.9523V12.5833H14.9167Z" fill="white"/>
</svg>
