<svg width="32" height="32" viewBox="0 0 32 32" fill="none" xmlns="http://www.w3.org/2000/svg">
<path d="M22.6666 7.66658C22.6666 6.74611 23.4128 5.99991 24.3333 5.99991C25.2538 5.99991 26 6.74611 26 7.66658C26 8.58705 25.2538 9.33325 24.3333 9.33325C23.4128 9.33325 22.6666 8.58705 22.6666 7.66658Z" fill="#6F26FF"/>
<path fill-rule="evenodd" clip-rule="evenodd" d="M16 8.08325C11.6277 8.08325 8.08331 11.6277 8.08331 15.9999C8.08331 20.3722 11.6277 23.9166 16 23.9166C20.3722 23.9166 23.9166 20.3722 23.9166 15.9999C23.9166 11.6277 20.3722 8.08325 16 8.08325ZM10.5833 15.9999C10.5833 13.0084 13.0084 10.5832 16 10.5832C18.9915 10.5832 21.4166 13.0084 21.4166 15.9999C21.4166 18.9915 18.9915 21.4166 16 21.4166C13.0084 21.4166 10.5833 18.9915 10.5833 15.9999Z" fill="#6F26FF"/>
<path fill-rule="evenodd" clip-rule="evenodd" d="M24.7637 0.721606C18.9861 0.075871 13.0139 0.075871 7.23626 0.721606C3.88283 1.0964 1.17561 3.73808 0.781356 7.10896C0.0904595 13.0161 0.0904594 18.9837 0.781356 24.8909C1.17561 28.2617 3.88284 30.9034 7.23626 31.2782C13.0139 31.924 18.9861 31.924 24.7637 31.2782C28.1172 30.9034 30.8244 28.2617 31.2186 24.8909C31.9095 18.9837 31.9095 13.0161 31.2186 7.10896C30.8244 3.73808 28.1172 1.0964 24.7637 0.721606ZM7.51394 3.20614C13.107 2.58103 18.893 2.58103 24.4861 3.20614C26.7029 3.4539 28.4787 5.20326 28.7356 7.39938C29.4039 13.1136 29.4039 18.8862 28.7356 24.6004C28.4787 26.7966 26.7029 28.5459 24.4861 28.7937C18.893 29.4188 13.107 29.4188 7.51395 28.7937C5.2971 28.5459 3.52129 26.7966 3.26443 24.6004C2.5961 18.8862 2.5961 13.1136 3.26443 7.39938C3.52129 5.20326 5.2971 3.4539 7.51394 3.20614Z" fill="#6F26FF"/>
</svg>