<svg width="34" height="34" viewBox="0 0 34 34" fill="none" xmlns="http://www.w3.org/2000/svg">
<path d="M11.81 8.94967C12.115 8.95784 12.453 8.97433 12.7747 9.6883C12.988 10.1636 13.3473 11.0386 13.64 11.7514C13.8677 12.306 14.0551 12.7624 14.102 12.8559C14.2092 13.0692 14.2752 13.3153 14.135 13.6025C14.1185 13.6364 14.1029 13.6688 14.0878 13.7C13.9754 13.9333 13.8954 14.0993 13.7063 14.3165C13.6286 14.4057 13.5476 14.5036 13.4669 14.6011C13.325 14.7725 13.184 14.9429 13.0632 15.0633C12.8489 15.2765 12.6262 15.5064 12.8735 15.9331C13.121 16.3598 13.9866 17.763 15.2646 18.8955C16.6385 20.1186 17.8332 20.6341 18.437 20.8947C18.5543 20.9452 18.6493 20.9862 18.719 21.0209C19.1478 21.2342 19.4033 21.2014 19.6506 20.9142C19.8981 20.6269 20.7225 19.6668 21.0111 19.2401C21.2914 18.8135 21.5799 18.8791 21.9758 19.0268C22.3714 19.1745 24.4821 20.2085 24.9107 20.4218C24.9955 20.464 25.0748 20.502 25.1482 20.5372C25.4465 20.6803 25.6492 20.7775 25.7352 20.9224C25.8424 21.1029 25.8424 21.9564 25.4879 22.9575C25.1252 23.9587 23.3773 24.9188 22.5858 24.9926C22.5108 24.9997 22.4363 25.0087 22.3595 25.018C21.6342 25.1057 20.7134 25.2171 17.4328 23.9258C13.3905 22.3362 10.7222 18.3923 10.1827 17.5949C10.1401 17.5319 10.1108 17.4886 10.0951 17.4676L10.086 17.4553C9.84051 17.1269 8.33893 15.1177 8.33893 13.0447C8.33893 11.0613 9.31596 10.0287 9.76161 9.5577C9.78985 9.52785 9.81596 9.50026 9.83955 9.47482C10.2352 9.04816 10.697 8.9415 10.9855 8.9415C11.2742 8.9415 11.5627 8.9415 11.81 8.94967Z" fill="white"/>
<path fill-rule="evenodd" clip-rule="evenodd" d="M0.640423 32.5523C0.504061 33.0473 0.954876 33.5041 1.45162 33.3744L9.13052 31.3687C11.5544 32.6816 14.2835 33.3791 17.062 33.3791H17.0702C26.2135 33.3791 33.6668 25.969 33.6668 16.8603C33.6668 12.4455 31.9435 8.29315 28.8106 5.17477C25.6777 2.05653 21.514 0.333252 17.0701 0.333252C7.92691 0.333252 0.473634 7.74334 0.473634 16.8522C0.472595 19.7499 1.23746 22.5969 2.69144 25.1074L0.640423 32.5523ZM5.10165 25.7714C5.27968 25.1252 5.19074 24.4345 4.8548 23.8545C3.62121 21.7245 2.97275 19.3091 2.97363 16.8522C2.97363 9.13589 9.29575 2.83325 17.0701 2.83325C20.8532 2.83325 24.3827 4.29489 27.047 6.94667C29.7082 9.59553 31.1668 13.1101 31.1668 16.8603C31.1668 24.5765 24.8447 30.8791 17.0702 30.8791H17.062C14.7011 30.8791 12.3812 30.2863 10.3212 29.1705C9.76369 28.8685 9.11222 28.7896 8.49873 28.9498L3.89472 30.1524L5.10165 25.7714Z" fill="white"/>
</svg>
