<svg width="252" height="31" viewBox="0 0 252 31" fill="none" xmlns="http://www.w3.org/2000/svg">
<path d="M195.209 0.886749V27.743H191.685L175.093 5.07305V27.743H172.054V0.886749H175.578L192.17 23.4857V0.886749H195.209Z" fill="#F4EFEE"/>
<path d="M14.7828 0.520355H21.287L26.2183 22.4571H26.4548L31.3861 0.520355H37.9376L30.0853 28.2517H22.5169L14.7828 0.520355Z" fill="url(#paint0_linear_5_87)"/>
<path d="M56.9713 28.1334C55.6468 28.5502 54.1125 28.7601 52.3711 28.7601C50.6357 28.7601 49.1013 28.5502 47.7709 28.1334C46.4464 27.7165 45.2195 26.9952 44.0931 25.9693C41.728 23.8643 40.5454 19.9825 40.5454 14.3209C40.5454 7.95871 42.1714 3.75466 45.4294 1.7029C47.1944 0.567634 49.5123 0 52.383 0C56.8767 0 60.0578 1.425 61.9263 4.26908C63.4459 6.58101 64.2087 9.93065 64.2087 14.3209C64.2087 19.9825 63.0261 23.8643 60.661 25.9693C59.5316 26.9952 58.3017 27.7165 56.9713 28.1334ZM49.2373 6.09024C48.5189 6.51006 47.9631 7.36742 47.5699 8.66825C47.1737 9.96908 46.9786 11.8789 46.9786 14.3919C46.9786 16.8989 47.1796 18.8118 47.5817 20.1274C47.9897 21.4459 48.5544 22.3092 49.2728 22.7172C49.9971 23.1193 51.0289 23.3203 52.3711 23.3203C53.7193 23.3203 54.7481 23.1134 55.4576 22.6936C57.0098 21.7948 57.7873 19.0335 57.7873 14.4037C57.7873 9.72074 57.0334 6.94761 55.5286 6.07842C54.7954 5.66156 53.7429 5.45166 52.3711 5.45166C51.0053 5.45166 49.9616 5.66452 49.2373 6.09024Z" fill="url(#paint1_linear_5_87)"/>
<path d="M69.4603 28.2517V0.520355H86.1109V5.80645L75.6097 5.68819L75.456 11.6011H85.1176V16.8162H75.456L75.6097 23.0483L86.1109 22.9656V28.2517H69.4603Z" fill="url(#paint2_linear_5_87)"/>
<path d="M114.645 27.743H111.286L107.999 19.9498H94.6949L91.4073 27.743H88.037L99.437 0.886749H103.257L114.645 27.743ZM106.816 17.1589L101.341 4.05604L95.8656 17.1589H106.816Z" fill="#F4EFEE"/>
<path d="M119.965 4.57639C121.1 3.3406 122.478 2.36203 124.104 1.64361C125.727 0.928158 127.403 0.567474 129.13 0.567474C130.862 0.567474 132.364 0.756686 133.635 1.13511C134.904 1.51353 136.051 2.02795 137.077 2.67245C139.211 4.0531 140.781 5.89496 141.783 8.19506H138.46C137.647 6.73754 136.515 5.5934 135.066 4.7656C133.624 3.9378 131.983 3.5239 130.147 3.5239C128.308 3.5239 126.741 3.80476 125.44 4.36353C124.139 4.91638 123.043 5.67618 122.153 6.64589C120.314 8.65035 119.397 11.2077 119.397 14.3208C119.397 17.4605 120.302 20.0149 122.117 21.9838C124.033 24.0652 126.575 25.1058 129.745 25.1058C132.281 25.1058 134.469 24.3224 136.308 22.7525C138.253 21.1058 139.229 18.9299 139.229 16.2247H129.414V13.4693H142.032V27.743H139.229V23.0009C137.692 25.3276 135.554 26.8797 132.819 27.6602C131.817 27.9263 130.496 28.0623 128.858 28.0623C127.226 28.0623 125.597 27.7075 123.974 26.9979C122.357 26.2825 120.982 25.301 119.847 24.0533C117.52 21.5079 116.358 18.2647 116.358 14.3208C116.358 10.4272 117.558 7.17805 119.965 4.57639Z" fill="#F4EFEE"/>
<path d="M150.429 3.8077V12.8189H165.353V15.7753H150.429V24.822H167.139V27.743H147.39V0.886749H167.139V3.8077H150.429Z" fill="#F4EFEE"/>
<path d="M213.757 25.1058C215.672 25.1058 217.352 24.621 218.794 23.6513C220.243 22.6757 221.319 21.363 222.023 19.7133H225.228C224.335 22.2529 222.862 24.2544 220.805 25.7208C218.62 27.2818 216.039 28.0623 213.059 28.0623C209.139 28.0623 205.963 26.726 203.527 24.0533C201.233 21.4842 200.086 18.241 200.086 14.3208C200.086 10.3946 201.233 7.14849 203.527 4.57639C205.963 1.90378 209.139 0.567474 213.059 0.567474C216.039 0.567474 218.62 1.35388 220.805 2.92079C222.862 4.38127 224.335 6.37981 225.228 8.91643H222.023C221.319 7.2697 220.243 5.96 218.794 4.99029C217.352 4.01467 215.666 3.5239 213.745 3.5239C211.829 3.5239 210.235 3.80476 208.967 4.36353C207.696 4.91638 206.629 5.67618 205.762 6.64589C204.003 8.6267 203.125 11.184 203.125 14.3208C203.125 17.4605 204.003 20.0149 205.762 21.9838C207.598 24.0652 210.262 25.1058 213.757 25.1058Z" fill="#F4EFEE"/>
<path d="M240.766 27.743H237.726V17.1116L226.456 0.886749H230.146L239.228 13.9542L248.31 0.886749H252L240.766 17.1116V27.743Z" fill="#F4EFEE"/>
<path d="M2.57483 27.2877H6.27493V28.138H2.57483V27.2877Z" fill="white"/>
<path d="M6.34329 28.2063H2.5083V27.2194H6.34329V28.2063ZM2.64319 28.0697H6.2084V27.356H2.64319V28.0697Z" fill="#8C52FF"/>
<mask id="mask0_5_87" style="mask-type:luminance" maskUnits="userSpaceOnUse" x="0" y="23" width="9" height="7">
<path d="M0 23.7379H8.82936V29.4204H0V23.7379Z" fill="white"/>
</mask>
<g mask="url(#mask0_5_87)">
<path d="M4.42572 26.13C6.42346 26.13 8.10874 27.3782 8.62269 29.0806C8.72685 28.7322 8.78319 28.3668 8.78319 27.9861C8.78319 25.7527 6.83326 23.9428 4.42572 23.9428C2.01817 23.9428 0.0665283 25.7527 0.0665283 27.9861C0.0665283 28.3668 0.122875 28.7322 0.228739 29.0806C0.742689 27.3782 2.42626 26.13 4.42572 26.13Z" fill="white"/>
</g>
<mask id="mask1_5_87" style="mask-type:luminance" maskUnits="userSpaceOnUse" x="0" y="23" width="9" height="7">
<path d="M0 23.7379H8.85156V29.4204H0V23.7379Z" fill="white"/>
</mask>
<g mask="url(#mask1_5_87)">
<path d="M8.62275 29.3145L8.55787 29.1011C8.04221 27.3919 6.34327 26.1983 4.42578 26.1983C2.50828 26.1983 0.809344 27.3919 0.293686 29.1011L0.228802 29.3145L0.163918 29.1011C0.0546392 28.7391 0 28.3651 0 27.9861C0 26.8865 0.461019 25.8534 1.29768 25.0765C2.13435 24.3013 3.2442 23.8745 4.42578 23.8745C5.60735 23.8745 6.71721 24.3013 7.55217 25.0765C8.39054 25.8534 8.85156 26.8865 8.85156 27.9861C8.85156 28.3651 8.79521 28.7391 8.68593 29.1011L8.62275 29.3145ZM4.42578 24.0111C2.05922 24.0111 0.134891 25.7937 0.134891 27.9861C0.134891 28.278 0.16904 28.5666 0.235632 28.8466C0.515658 28.0851 1.03985 27.4038 1.73138 26.9104C2.50999 26.3554 3.44056 26.0617 4.42578 26.0617C5.40928 26.0617 6.34157 26.3554 7.12018 26.9104C7.81 27.4038 8.3359 28.0851 8.61592 28.8466C8.68252 28.5666 8.71667 28.278 8.71667 27.9861C8.71667 25.7937 6.79234 24.0111 4.42578 24.0111Z" fill="#8C52FF"/>
</g>
<path d="M2.11377 16.6553C1.71422 17.6951 1.42395 18.9552 1.42395 20.4168C1.42395 22.8807 1.79277 26.3162 2.38014 27.8717C2.99312 27.6343 3.68806 27.5012 4.42569 27.5012C5.16332 27.5012 5.85827 27.6343 6.46954 27.8717C7.05862 26.3162 7.42573 22.8807 7.42573 20.4168C7.42573 18.9552 7.13717 17.6951 6.73762 16.6553C6.02389 16.604 5.24357 16.5767 4.42569 16.5767C3.60781 16.5767 2.8275 16.604 2.11377 16.6553Z" fill="white"/>
<path d="M6.50888 27.9604L6.4457 27.9365C5.82759 27.6958 5.12753 27.5694 4.42576 27.5694C3.72228 27.5694 3.02392 27.6958 2.40581 27.9365L2.34264 27.9604L2.31873 27.8973C1.71599 26.3059 1.35742 22.8448 1.35742 20.4168C1.35742 19.1038 1.58964 17.83 2.05066 16.6296L2.06602 16.5904L2.10871 16.5869C2.84463 16.5357 3.62495 16.5084 4.42576 16.5084C5.22656 16.5084 6.00688 16.5357 6.7428 16.5869L6.78549 16.5904L6.80085 16.6296C7.26017 17.83 7.49409 19.1038 7.49409 20.4168C7.49409 22.8448 7.13381 26.3059 6.53278 27.8973L6.50888 27.9604ZM2.15994 16.7201C1.71599 17.8914 1.49231 19.1362 1.49231 20.4168C1.49231 22.8004 1.83893 26.1812 2.41947 27.7846C3.03758 27.5541 3.73081 27.4328 4.42576 27.4328C5.1207 27.4328 5.81223 27.5541 6.43033 27.7846C7.01258 26.1812 7.3592 22.8004 7.3592 20.4168C7.3592 19.1362 7.13381 17.8914 6.68987 16.7201C5.96931 16.6706 5.20778 16.645 4.42576 16.645C3.64202 16.645 2.88049 16.6706 2.15994 16.7201Z" fill="#8C52FF"/>
<mask id="mask2_5_87" style="mask-type:luminance" maskUnits="userSpaceOnUse" x="3" y="23" width="3" height="8">
<path d="M3.58398 23.3008H5.33244V30.0572H3.58398V23.3008Z" fill="white"/>
</mask>
<g mask="url(#mask2_5_87)">
<path d="M5.10707 26.6679C5.10707 28.4488 4.42579 29.8899 4.42579 29.8899C4.42579 29.8899 3.7428 28.4488 3.7428 26.6679C3.7428 24.8887 4.42579 23.4459 4.42579 23.4459C4.42579 23.4459 5.10707 24.8887 5.10707 26.6679Z" fill="white"/>
</g>
<mask id="mask3_5_87" style="mask-type:luminance" maskUnits="userSpaceOnUse" x="3" y="22" width="3" height="9">
<path d="M3.58398 22.8637H5.33244V30.0573H3.58398V22.8637Z" fill="white"/>
</mask>
<g mask="url(#mask3_5_87)">
<path d="M4.42585 30.0487L4.36438 29.9206C4.35755 29.9053 4.19022 29.5484 4.01947 28.9662C3.86238 28.43 3.67627 27.5968 3.67627 26.6679C3.67627 25.7407 3.86238 24.9075 4.01947 24.3713C4.19022 23.7891 4.35755 23.4322 4.36438 23.4169L4.42585 23.2888L4.48561 23.4169C4.49415 23.4322 4.66148 23.7891 4.83052 24.3713C4.98761 24.9075 5.17543 25.7407 5.17543 26.6679C5.17543 27.5968 4.98761 28.43 4.83052 28.9662C4.66148 29.5484 4.49415 29.9053 4.48561 29.9206L4.42585 30.0487ZM4.42585 23.6166C4.25852 24.0196 3.81116 25.2422 3.81116 26.6679C3.81116 28.0953 4.26023 29.3179 4.42585 29.7209C4.59148 29.3162 5.04054 28.0953 5.04054 26.6679C5.04054 25.2422 4.59148 24.0196 4.42585 23.6166Z" fill="#8C52FF"/>
</g>
<mask id="mask4_5_87" style="mask-type:luminance" maskUnits="userSpaceOnUse" x="1" y="13" width="7" height="4">
<path d="M1.83545 13.0098H7.08082V16.744H1.83545V13.0098Z" fill="white"/>
</mask>
<g mask="url(#mask4_5_87)">
<path d="M4.42569 13.1071C4.42569 13.1071 2.99824 14.3433 2.11377 16.6552C2.82749 16.604 3.60781 16.5767 4.42569 16.5767C5.24357 16.5767 6.02389 16.604 6.73762 16.6552C5.85143 14.3433 4.42569 13.1071 4.42569 13.1071Z" fill="white"/>
<path d="M6.83839 16.7304L6.73252 16.7235C6.00002 16.6723 5.22312 16.645 4.42572 16.645C3.62662 16.645 2.85143 16.6723 2.11722 16.7235L2.01135 16.7304L2.05062 16.6296C2.51164 15.4293 3.1195 14.5209 3.54808 13.9728C4.01422 13.3752 4.36596 13.0678 4.38133 13.0559L4.42572 13.0183L4.46841 13.0559C4.48378 13.0678 4.83552 13.3752 5.30166 13.9728C5.73194 14.5209 6.3398 15.4293 6.80082 16.6296L6.83839 16.7304ZM4.42572 13.1993C4.31645 13.3 4.01593 13.592 3.65224 14.0599C3.24074 14.5858 2.66361 15.4446 2.21454 16.5801C2.91973 16.5323 3.66248 16.5084 4.42572 16.5084C5.18726 16.5084 5.93172 16.5323 6.6352 16.5801C6.18613 15.4446 5.609 14.5858 5.19921 14.0599C4.83381 13.592 4.53329 13.3 4.42572 13.1993Z" fill="#8C52FF"/>
</g>
<path d="M6.30564 19.5648C6.30564 19.6894 6.29369 19.8141 6.26978 19.9353C6.24588 20.0583 6.21002 20.1778 6.16221 20.2922C6.1144 20.4083 6.05635 20.5176 5.98805 20.6217C5.91975 20.7259 5.84291 20.8215 5.75412 20.9103C5.66704 20.9991 5.57313 21.0776 5.47068 21.1459C5.36653 21.2159 5.25896 21.274 5.14456 21.3218C5.03015 21.3696 4.91405 21.4072 4.79282 21.4311C4.67158 21.455 4.54865 21.4669 4.42571 21.4669C4.30106 21.4669 4.17983 21.455 4.0586 21.4311C3.93737 21.4072 3.81955 21.3696 3.70515 21.3218C3.59246 21.274 3.48318 21.2159 3.38073 21.1459C3.27828 21.0776 3.18267 20.9991 3.09558 20.9103C3.0085 20.8215 2.92996 20.7259 2.86166 20.6217C2.79336 20.5176 2.73531 20.4083 2.6892 20.2922C2.6414 20.1778 2.60554 20.0583 2.58163 19.9353C2.55773 19.8141 2.54578 19.6894 2.54578 19.5648C2.54578 19.4402 2.55773 19.3155 2.58163 19.1943C2.60554 19.0713 2.6414 18.9518 2.6892 18.8374C2.73531 18.7213 2.79336 18.612 2.86166 18.5079C2.92996 18.4037 3.0085 18.3081 3.09558 18.2193C3.18267 18.1305 3.27828 18.052 3.38073 17.982C3.48318 17.9137 3.59246 17.8556 3.70515 17.8078C3.81955 17.76 3.93737 17.7224 4.0586 17.6985C4.17983 17.6746 4.30106 17.6627 4.42571 17.6627C4.54865 17.6627 4.67158 17.6746 4.79282 17.6985C4.91405 17.7224 5.03015 17.76 5.14456 17.8078C5.25896 17.8556 5.36653 17.9137 5.47068 17.982C5.57313 18.052 5.66704 18.1305 5.75412 18.2193C5.84291 18.3081 5.91975 18.4037 5.98805 18.5079C6.05635 18.612 6.1144 18.7213 6.16221 18.8374C6.21002 18.9518 6.24588 19.0713 6.26978 19.1943C6.29369 19.3155 6.30564 19.4402 6.30564 19.5648Z" fill="white"/>
<path d="M4.42577 21.5352C3.35177 21.5352 2.47754 20.6507 2.47754 19.5648C2.47754 18.4788 3.35177 17.5943 4.42577 17.5943C5.49977 17.5943 6.37229 18.4788 6.37229 19.5648C6.37229 20.6507 5.49977 21.5352 4.42577 21.5352ZM4.42577 17.7309C3.42519 17.7309 2.61243 18.5539 2.61243 19.5648C2.61243 20.5756 3.42519 21.3986 4.42577 21.3986C5.42464 21.3986 6.2374 20.5756 6.2374 19.5648C6.2374 18.5539 5.42464 17.7309 4.42577 17.7309Z" fill="#8C52FF"/>
<path d="M5.79178 19.5648C5.79178 19.7475 5.75592 19.9251 5.68762 20.0941C5.61761 20.2631 5.51858 20.4117 5.39052 20.5415C5.26246 20.6712 5.11562 20.772 4.94828 20.842C4.78095 20.912 4.60679 20.9461 4.4258 20.9461C4.2448 20.9461 4.07064 20.912 3.90331 20.842C3.73597 20.772 3.58742 20.6712 3.45936 20.5415C3.3313 20.4117 3.23227 20.2631 3.16397 20.0941C3.09396 19.9251 3.05981 19.7475 3.05981 19.5648C3.05981 19.3821 3.09396 19.2045 3.16397 19.0355C3.23227 18.8664 3.3313 18.7179 3.45936 18.5881C3.58742 18.4583 3.73597 18.3576 3.90331 18.2876C4.07064 18.2176 4.2448 18.1834 4.4258 18.1834C4.60679 18.1834 4.78095 18.2176 4.94828 18.2876C5.11562 18.3576 5.26246 18.4583 5.39052 18.5881C5.51858 18.7179 5.61761 18.8664 5.68762 19.0355C5.75592 19.2045 5.79178 19.3821 5.79178 19.5648Z" fill="white"/>
<path d="M4.42574 21.0161C3.63517 21.0161 2.99146 20.3639 2.99146 19.5648C2.99146 18.7657 3.63517 18.1151 4.42574 18.1151C5.2163 18.1151 5.85831 18.7657 5.85831 19.5648C5.85831 20.3639 5.2163 21.0161 4.42574 21.0161ZM4.42574 18.25C3.7103 18.25 3.12635 18.8408 3.12635 19.5648C3.12635 20.2887 3.7103 20.8795 4.42574 20.8795C5.14117 20.8795 5.72342 20.2887 5.72342 19.5648C5.72342 18.8408 5.14117 18.25 4.42574 18.25Z" fill="#8C52FF"/>
<defs>
<linearGradient id="paint0_linear_5_87" x1="26.3602" y1="0.520355" x2="26.3602" y2="28.2517" gradientUnits="userSpaceOnUse">
<stop stop-color="#8C52FF"/>
<stop offset="1" stop-color="#6F26FF"/>
</linearGradient>
<linearGradient id="paint1_linear_5_87" x1="52.377" y1="0" x2="52.377" y2="28.7601" gradientUnits="userSpaceOnUse">
<stop stop-color="#8C52FF"/>
<stop offset="1" stop-color="#6F26FF"/>
</linearGradient>
<linearGradient id="paint2_linear_5_87" x1="77.7856" y1="0.520355" x2="77.7856" y2="28.2517" gradientUnits="userSpaceOnUse">
<stop stop-color="#8C52FF"/>
<stop offset="1" stop-color="#6F26FF"/>
</linearGradient>
</defs>
</svg>
