<svg width="333" height="100" viewBox="0 0 333 100" fill="none" xmlns="http://www.w3.org/2000/svg">
<g clip-path="url(#clip0_196_697)">
<path fill-rule="evenodd" clip-rule="evenodd" d="M0 0.140416H35.1656L31.9359 10.204H22.8152V45.2893V47.3956H11.4477V10.204H1.33735H0V0.147109V0.140416ZM92.7652 0.140416H128.74L125.517 10.204H115.58V45.2893V47.4157H104.213V10.204H94.1093H92.7719V0.147109L92.7652 0.140416ZM37.3054 16.1886V15.1588H48.5792V16.1886V44.4067L48.5458 47.3756H37.3789V45.7775L37.3054 16.1886ZM53.0526 2.22668V0H64.1928V1.93246V21.9927L75.4533 11.0398H88.9337L74.818 24.741L90.6322 47.3689H78.2349L67.6498 31.7353L64.3065 34.9783V47.4425H53.0861V46.3793L53.046 2.24674L53.0526 2.22668ZM172.378 2.22668V0H183.524V1.93246V21.9927L194.785 11.0398H208.225L194.11 24.741L209.964 47.3889H197.527L186.975 31.7353L183.631 34.9783V47.4425H172.411V46.3793L172.378 2.22668ZM155.454 30.5919C156.065 28.403 155.86 26.0663 154.876 24.0177C153.891 21.9691 152.195 20.3486 150.104 19.4584C149.082 19.0269 147.99 18.7866 146.881 18.7496H146.44C145.591 18.751 144.746 18.8612 143.926 19.0773C143.139 19.2876 142.384 19.6001 141.679 20.0067C140.984 20.3987 140.348 20.8847 139.786 21.4511C139.224 22.0122 138.736 22.6438 138.335 23.33C137.49 24.7736 137.049 26.4181 137.058 28.091C137.058 29.7605 137.499 31.4005 138.335 32.8453C138.739 33.5357 139.228 34.1717 139.793 34.7376C141.179 36.1226 142.971 37.0291 144.908 37.3254C145.419 37.4064 145.936 37.4466 146.453 37.4458H146.814C148.796 37.3827 150.706 36.6845 152.261 35.4542C153.817 34.2238 154.936 32.5264 155.454 30.6119V30.5919ZM164.193 20.4949C165.214 22.8891 165.728 25.4684 165.704 28.0709C165.722 31.5098 164.817 34.8905 163.083 37.8603C161.425 40.7118 159.054 43.083 156.202 44.741C154.302 45.8382 152.228 46.6047 150.071 47.0078L149.696 47.0747C149.126 47.1683 148.551 47.2352 147.971 47.2753C147.597 47.2753 147.215 47.3154 146.834 47.3288H146.112C145.443 47.3288 144.775 47.2686 144.106 47.195L143.825 47.1549C143.638 47.1549 143.451 47.1081 143.27 47.0747L142.943 47.0212L142.401 46.9142L142.12 46.854C139.175 46.16 136.433 44.7866 134.114 42.8434C131.795 40.9002 129.962 38.4413 128.764 35.6633C127.565 32.8853 127.032 29.8653 127.209 26.8448C127.386 23.8243 128.268 20.8871 129.783 18.2682C130.614 16.856 131.62 15.555 132.779 14.3966C133.937 13.2349 135.246 12.2341 136.67 11.421C138.448 10.4026 140.375 9.67141 142.381 9.25445L142.742 9.18758C143.822 8.98082 144.919 8.86673 146.018 8.84655H146.975C147.934 8.87125 148.89 8.96286 149.837 9.12071H149.89C150.445 9.21433 151 9.33469 151.542 9.47511C151.589 9.48538 151.636 9.49879 151.682 9.51523C151.806 9.5447 151.929 9.58041 152.05 9.62222C152.402 9.72029 152.75 9.83397 153.093 9.96325C153.394 10.0635 153.688 10.1839 153.982 10.3043C156.266 11.2522 158.343 12.6378 160.094 14.3832C161.846 16.1329 163.244 18.2033 164.213 20.4815L164.193 20.4949ZM48.626 5.78403C48.626 7.29145 48.0272 8.73713 46.9613 9.80304C45.8954 10.8689 44.4497 11.4678 42.9423 11.4678C41.4349 11.4678 39.9892 10.8689 38.9233 9.80304C37.8574 8.73713 37.2586 7.29145 37.2586 5.78403C37.2586 4.27661 37.8574 2.83093 38.9233 1.76503C39.9892 0.699118 41.4349 0.100297 42.9423 0.100297C44.4497 0.100297 45.8954 0.699118 46.9613 1.76503C48.0272 2.83093 48.626 4.27661 48.626 5.78403Z" fill="white"/>
<path fill-rule="evenodd" clip-rule="evenodd" d="M167.169 20.4949C166.2 18.2167 164.801 16.1463 163.05 14.3966C161.258 12.6191 159.134 11.2131 156.797 10.2595C154.461 9.30588 151.959 8.82344 149.436 8.83988H146.928C147.887 8.86458 148.843 8.95619 149.79 9.11404H149.843C150.398 9.20766 150.953 9.32802 151.495 9.46844C151.543 9.47872 151.59 9.49212 151.635 9.50856C151.76 9.53804 151.883 9.57375 152.003 9.61555C152.355 9.71362 152.703 9.8273 153.046 9.95658L153.287 10.0435C155.825 10.9863 158.131 12.4641 160.047 14.3765C161.799 16.1262 163.197 18.1967 164.166 20.4748C165.187 22.869 165.702 25.4484 165.678 28.0509C165.692 29.7985 165.467 31.5399 165.009 33.2264C164.564 34.8415 163.912 36.3923 163.07 37.8403C161.412 40.6918 159.041 43.0629 156.189 44.721C154.521 45.6865 152.718 46.3986 150.84 46.834L150.546 46.8942C149.327 47.1491 148.086 47.2879 146.841 47.3087H149.516C152.929 47.3212 156.285 46.4258 159.238 44.7143C162.09 43.0562 164.461 40.6851 166.119 37.8336C167.851 34.8627 168.758 31.4831 168.747 28.0442C168.743 25.4463 168.205 22.877 167.169 20.4949Z" fill="#FF004F"/>
<path fill-rule="evenodd" clip-rule="evenodd" d="M144.086 47.1951L143.805 47.155C143.324 47.0926 142.849 47.0123 142.381 46.9142L142.1 46.8541C137.843 45.8891 134.042 43.5028 131.323 40.0886C128.604 36.6743 127.129 32.4357 127.142 28.071C127.123 25.5329 127.609 23.0164 128.574 20.6685C129.538 18.3206 130.961 16.1885 132.759 14.3966C133.917 13.2349 135.226 12.2341 136.65 11.421C139.504 9.78837 142.724 8.90286 146.012 8.84662H143.497C140.058 8.83159 136.675 9.72173 133.688 11.4277C132.263 12.2408 130.954 13.2416 129.796 14.4033C128.634 15.5587 127.627 16.8601 126.801 18.2749C125.069 21.2491 124.156 24.6293 124.156 28.071C124.156 31.5128 125.069 34.893 126.801 37.8671C129.325 42.2066 133.465 45.3703 138.315 46.6668C140.106 47.1492 141.957 47.3743 143.812 47.3355H146.112C145.443 47.3355 144.775 47.2821 144.106 47.2018" fill="#00F2EA"/>
</g>
<path d="M108.325 98.7431L124.982 61.7319H131.749L148.466 98.7431H141.264L126.934 65.3829H129.683L115.406 98.7431H108.325ZM115.988 90.1774L117.82 84.7745H137.807L139.659 90.164L115.988 90.1774Z" fill="white"/>
<path d="M164.206 99.111C161.638 99.1552 159.103 98.5283 156.851 97.2922C154.72 96.1082 152.955 94.3619 151.749 92.2437C150.532 89.8895 149.896 87.2778 149.896 84.6275C149.896 81.9772 150.532 79.3655 151.749 77.0113C152.951 74.8964 154.717 73.1576 156.851 71.9896C159.107 70.7659 161.64 70.1463 164.206 70.1908C166.421 70.1541 168.608 70.6933 170.552 71.7555C172.474 72.8493 174.021 74.4968 174.992 76.4831C176.082 78.6028 176.63 81.3109 176.63 84.6275C176.73 87.419 176.187 90.196 175.046 92.7452C174.106 94.7494 172.575 96.4179 170.659 97.5262C168.684 98.6092 166.459 99.1556 164.206 99.111ZM165.002 93.454C166.488 93.4812 167.954 93.1168 169.255 92.3975C170.524 91.6749 171.567 90.6148 172.271 89.335C173.018 87.8735 173.407 86.2555 173.407 84.6141C173.407 82.9727 173.018 81.3548 172.271 79.8933C171.561 78.6254 170.518 77.5756 169.255 76.8575C167.943 76.1637 166.482 75.801 164.999 75.801C163.515 75.801 162.054 76.1637 160.743 76.8575C159.48 77.5741 158.439 78.6244 157.734 79.8933C156.986 81.3548 156.597 82.9727 156.597 84.6141C156.597 86.2555 156.986 87.8735 157.734 89.335C158.432 90.6158 159.474 91.6764 160.743 92.3975C162.044 93.1215 163.513 93.4904 165.002 93.4674V93.454ZM173.568 98.7432V92.0565L173.829 84.5472L173.32 77.0648V59.5121H179.88V98.7432H173.568Z" fill="white"/>
<path d="M197.306 99.1108C195.009 99.12 192.723 98.8095 190.512 98.1881C188.683 97.7239 186.942 96.9651 185.356 95.9413L187.891 90.9196C190.861 92.7148 194.257 93.6822 197.727 93.7213C199.804 93.7213 201.311 93.4382 202.247 92.8721C202.667 92.6582 203.019 92.3329 203.265 91.9318C203.512 91.5307 203.643 91.0694 203.645 90.5986C203.659 90.2463 203.579 89.8964 203.412 89.5859C203.245 89.2753 202.997 89.0153 202.695 88.8333C201.931 88.3774 201.09 88.0625 200.214 87.9038C199.194 87.6988 198.057 87.5049 196.804 87.3221C195.552 87.1393 194.299 86.9008 193.046 86.6066C191.851 86.3268 190.703 85.8764 189.636 85.2693C188.627 84.7027 187.774 83.8938 187.155 82.9155C186.468 81.7302 186.136 80.3724 186.199 79.0038C186.164 77.314 186.707 75.6629 187.737 74.3231C188.862 72.9237 190.352 71.8636 192.043 71.2605C194.15 70.4918 196.381 70.1221 198.623 70.1706C200.561 70.1754 202.494 70.3884 204.387 70.8058C206.079 71.1378 207.706 71.7455 209.201 72.6046L206.66 77.6263C205.412 76.854 204.045 76.2915 202.615 75.9613C201.298 75.6669 199.953 75.5167 198.603 75.5133C196.597 75.5133 195.108 75.812 194.136 76.4093C193.712 76.6224 193.353 76.9461 193.098 77.3463C192.842 77.7465 192.7 78.2083 192.685 78.6828C192.663 79.0558 192.738 79.4282 192.905 79.7626C193.072 80.0971 193.323 80.3819 193.635 80.5885C194.4 81.0633 195.241 81.4026 196.122 81.5916C197.246 81.8594 198.385 82.0625 199.532 82.2C200.788 82.3591 202.032 82.598 203.257 82.9155C204.441 83.2111 205.586 83.6466 206.667 84.2127C207.695 84.7422 208.563 85.5363 209.181 86.513C209.855 87.69 210.173 89.0372 210.097 90.3913C210.128 92.0592 209.577 93.6858 208.539 94.9918C207.369 96.3836 205.844 97.4326 204.126 98.0276C201.937 98.7967 199.626 99.1637 197.306 99.1108Z" fill="white"/>
<defs>
<clipPath id="clip0_196_697">
<rect width="333" height="47.4023" fill="white"/>
</clipPath>
</defs>
</svg>
