<svg width="35" height="35" viewBox="0 0 35 35" fill="none" xmlns="http://www.w3.org/2000/svg">
<path fill-rule="evenodd" clip-rule="evenodd" d="M5.33333 0.0833435C2.80203 0.0833435 0.75 2.13537 0.75 4.66668C0.75 7.19798 2.80203 9.25001 5.33333 9.25001C7.86464 9.25001 9.91667 7.19798 9.91667 4.66668C9.91667 2.13537 7.86464 0.0833435 5.33333 0.0833435ZM3.25 4.66668C3.25 3.51608 4.18274 2.58334 5.33333 2.58334C6.48393 2.58334 7.41667 3.51608 7.41667 4.66668C7.41667 5.81727 6.48393 6.75001 5.33333 6.75001C4.18274 6.75001 3.25 5.81727 3.25 4.66668Z" fill="url(#paint0_linear_122_380)"/>
<path fill-rule="evenodd" clip-rule="evenodd" d="M0.75 11.3333C0.75 10.643 1.30964 10.0833 2 10.0833H8.66667C9.35702 10.0833 9.91667 10.643 9.91667 11.3333V33C9.91667 33.6904 9.35702 34.25 8.66667 34.25H2C1.30964 34.25 0.75 33.6904 0.75 33V11.3333ZM3.25 12.5833V31.75H7.41667V12.5833H3.25Z" fill="url(#paint1_linear_122_380)"/>
<path fill-rule="evenodd" clip-rule="evenodd" d="M12.4167 11.3333C12.4167 10.643 12.9763 10.0833 13.6667 10.0833H20.3333C21.0237 10.0833 21.5833 10.643 21.5833 11.3333V12.0567L22.3088 11.7458C23.556 11.2113 24.8898 10.8761 26.2388 10.7535C30.8637 10.333 34.9167 13.9673 34.9167 18.6338V33C34.9167 33.6904 34.357 34.25 33.6667 34.25H27C26.3096 34.25 25.75 33.6904 25.75 33V21.3333C25.75 20.7808 25.5305 20.2509 25.1398 19.8602C24.7491 19.4695 24.2192 19.25 23.6667 19.25C23.1141 19.25 22.5842 19.4695 22.1935 19.8602C21.8028 20.2509 21.5833 20.7808 21.5833 21.3333V33C21.5833 33.6904 21.0237 34.25 20.3333 34.25H13.6667C12.9763 34.25 12.4167 33.6904 12.4167 33V11.3333ZM14.9167 12.5833V31.75H19.0833V21.3333C19.0833 20.1178 19.5662 18.952 20.4258 18.0924C21.2853 17.2329 22.4511 16.75 23.6667 16.75C24.8822 16.75 26.048 17.2329 26.9076 18.0924C27.7671 18.952 28.25 20.1178 28.25 21.3333V31.75H32.4167V18.6338C32.4167 15.4598 29.6484 12.9538 26.4651 13.2432C25.375 13.3423 24.2974 13.6135 23.2936 14.0437L20.8257 15.1013C20.4395 15.2668 19.996 15.2272 19.6452 14.9959C19.2944 14.7646 19.0833 14.3726 19.0833 13.9524V12.5833H14.9167Z" fill="url(#paint2_linear_122_380)"/>
<defs>
<linearGradient id="paint0_linear_122_380" x1="17.8333" y1="0.0833435" x2="17.8333" y2="34.25" gradientUnits="userSpaceOnUse">
<stop stop-color="#8C52FF"/>
<stop offset="1" stop-color="#6F26FF"/>
</linearGradient>
<linearGradient id="paint1_linear_122_380" x1="17.8333" y1="0.0833435" x2="17.8333" y2="34.25" gradientUnits="userSpaceOnUse">
<stop stop-color="#8C52FF"/>
<stop offset="1" stop-color="#6F26FF"/>
</linearGradient>
<linearGradient id="paint2_linear_122_380" x1="17.8333" y1="0.0833435" x2="17.8333" y2="34.25" gradientUnits="userSpaceOnUse">
<stop stop-color="#8C52FF"/>
<stop offset="1" stop-color="#6F26FF"/>
</linearGradient>
</defs>
</svg>
